<?xml version="1.0" encoding="UTF-8"?>
<svg version="1.1" viewBox="0 0 1056 816" xml:space="preserve" xmlns="http://www.w3.org/2000/svg" xmlns:cc="http://creativecommons.org/ns#" xmlns:dc="http://purl.org/dc/elements/1.1/" xmlns:rdf="http://www.w3.org/1999/02/22-rdf-syntax-ns#"><metadata><rdf:RDF><cc:Work rdf:about=""><dc:format>image/svg+xml</dc:format><dc:type rdf:resource="http://purl.org/dc/dcmitype/StillImage"/></cc:Work></rdf:RDF></metadata><g transform="matrix(1.3333 0 0 -1.3333 0 816)"><g transform="scale(.1)"><path d="m8060-108.18h-8200v6336.4h8200v-6336.4" fill="#69235f"/><path d="m4470 5209 5090 316-1650-316 3550 256-3910-830 415 300-3685 20 1772.8 180-1582.8 74" fill="#912257"/><path d="m-1228.8 6120 6662.5-162.73-3790.2-338.81 3790.2-191.19-6760-150 97.46 842.73" fill="#912257"/><path d="m2490 4720 2473.3 80-5273.3 200-220-570 7300 120-4280 170" fill="#912257"/><path d="m4618.2 5700h3823.5l-1019-82.62 2979-177.38-7468.4 214.53 1684.9 45.47" fill="#f46721"/><path d="m-1840 5244 4240 33.27-1380-97.27 3560-78-8220-292 1800 434" fill="#f46721"/><path d="m-220 6010 4456.5-150-4576.5-55.47 3173.4-210-5203.4 22.74 1450 262.73 2110-10-1410 140" fill="#f46721"/><path d="m-170 5590 3230-42.99-1870 162.99 5266.7-11.37-3396.6-58.63 1650-210h-4131.3l541.35 90-1290 70" fill="#fcb43e"/><path d="m-170 4710 1050 150 2300-400 435.95 140 1694-210 1430 290 1264.3-433v-1237l-8724.3 830 550 870" fill="#50256f"/><path d="m8655.7 5244-330-5204.7h-8564.6l-346.2 4514.3-28.796 375.4 510-495 1065 630 2259.8-1064.9 390 120 426.7-53.9 1318.2 818.8 726-627.3 213.9-184.9 275.1-237.7 495 210 609.9-300 980 1499.9" fill="#303d8b"/><path d="m8268.8 4650.2-585.47-880.2-627.53 274.1-485-210-275.1 237.7-213.9 184.9-0.01-0.05-725.99 627.35-1318.2-818.8-426.7 53.9-390-120-2259.8 1064.9-1065-630-510 495 28.796-375.4 428.4-323.6 723.37 485-403.34-388.33 550 340-76.633-199.97 500 370 593.3-390.03-113.32 164.79 1366.6-748.13-241.81 220.28 455.18-213.61 306.6 120 349.6-160 107.1 106.7 143.3-46.7 653.37 540-190-310.9 670.03 557.6 223.3-156.7 310-553.33-136.67 440 916.67-789.97 260 180 833.3-366.7 626.7 1046.7-1.2 173.5" fill="#286e9d"/><path d="m8235.7 3324.1v-3959.8l-9179.6 210-59.902 4444.8 614-134.7 570.9-125.3 1799.9 585 1844.9-1094.1 645 547 807.5-439 62.4-33.9 12.9 12.4 1109.6 733.5 1772.4-745.9" fill="#2862c9"/><path d="m6910 3636.7 820-730-180 290 685.7-420v547.43l-1769.9 795-1112.1-782.6-12.9-12.4-869.9 472.9-645-547-1844.9 1094.1-1799.9-585-570.9 125.3-140.2-94.4 766.7-186.7 616.63 306.7-131.64-145.73 704.98 270.28-140-141.22 460 203.34-229.97-273.37 400 180 188.16-149.76-51.53 246.46 667.98-737.1-37.98 300.43 537.57-523.33 79.1 159.08 458.41-239.08 691.59 576.7 546.67-413.37-48.64 153.34 388.67-359.97 823.3 706.63-88.5-176.17 391.8 282.84 286.68-336.26c81.2 70.97 160.02 142.93 160.02 142.93" fill="#56b1d1"/><path d="m4037.6 4065.2-426.7 53.9-217-66.77 217 33.39 495.77-135.72-146.67 84.55 77.6 30.65" fill="#56b1d1"/><path d="m5100.7 4725.5 209.3 67.79 123.7-158.33v108.33l582.97-610-16.67 133.34 386.67-380h150l-1180.9 997.33-255.1-158.46" fill="#56b1d1"/><path d="m7683.3 3770-627.53 274.1-285.8-123.75 283.33 39.65 613.34-336.67-90 133.34 106.66 13.33" fill="#56b1d1"/><path d="m961.1 5064-454.24-268.7c8.867 5.24 356.47 144.7 356.47 144.7l-50-166.67 263.33 140 860-400-30 76.67 1314.2-590.9-2259.8 1064.9" fill="#56b1d1"/><path d="m6465.8 4119.1 304.2-382.43 106.67 110 603.33-523.34 66.67 223.34 689.03-536.67v314.1l-1769.9 795" fill="#8fe7ff"/><path d="m4470.9 3797-135.79-115.16 135.79 57.58 872.43-542.75 217.62 276.83-220.15-149.4-869.9 472.9" fill="#8fe7ff"/><path d="m1616.7 4225.7c10 3.25 316.66 50.98 316.66 50.98l-90-100 206.67 50 1056.7-729.84v116.5l719.23-363.33-1844.9 1094.1-364.33-118.41" fill="#8fe7ff"/><path d="m-1228.8 3299.1c1049.9-209.99 3582.2-552.44 4452.2-657.43 869.96-104.99 2147.5 17.51 2732.5-0.01 584.98-17.52 2789.9-407.5 2789.9-407.5v-3134.9l-9974.5 265.01v3934.8" fill="#006836"/><path d="m-676.67 1030 1926.7 153.33-800-333.33h1244.8l-2064.8-353.33-306.67 533.33" fill="#00523b"/><path d="m1896.7 1170c20-6.67 600-40 626.66-40 26.67 0 920 200 920 200s406.67-173.33 440-166.67c33.34 6.67 394.89 102.33 394.89 102.33l-501.04-284.84-333.85 209.18-793.33-209.18-753.33 189.18" fill="#00523b"/><path d="m390 2043.3s1133.3-233.33 1141.8-260c8.52-26.66 684.82 532.74 684.82 532.74l-1453.3-136.47 120 210.4-1566.7-280.68 69.434-409.32 1003.9 343.33" fill="#00523b"/><path d="m-297 658.33-1013.3 248.34s-1433.3-480-1453.3-496.67l1293.3 183.33 941.43-440 2812.6 753.34-2580.7-248.34" fill="#28a266"/><path d="m3346.9 2303.7 613.13 295.86-277.08 7.09-1157-404.99 1864.1-872.39-3811.3-2166.8 4732.2-1563.1 1199.9 3884.8-3163.9 819.49" fill="#594444"/><path d="m3723.3 303.33 1163.7 895.86-350.39 117.48 700-117.48-2046.7 845.81 533.33-50-638.33 215.61 704.5 392.29-106.58 3.71-1131.3-396 86.51-41.47 0.13-0.06 124.64-59.76 5.32 1.79 728.66-325.01-201.87 68.1 1095-525-2813.3-1599.3 799.93-193.2 1644.2 1193.3-297.57-426.67" fill="#442f38"/><path d="m3599.8-216.67 1204.9 1213.3-1520-1213.3-36.63-20 235.44 339.66-1004-699.66 1187.8 26.668 777.43 846.67-844.92-493.34" fill="#442f38"/><path d="m4327.6 1727.7c86.49-31.22 870.16-371.02 870.16-371.02l-121 121.05 600-198.52-1593.3 605.37 616.67-271.24-372.49 114.36" fill="#442f38"/><path d="m5523.3 491.16c4.98 6.149 7.35 9.262 6.72 8.84-0.46-0.309-2.77-3.359-6.72-8.84" fill="#442f38"/><path d="m4786.7-373.33c-13.34-6.672 143.33 261.66 143.33 261.66l-340-311.66 176.67 350 120.39 273.33s-337.06-320-353.73-336.67l-303.33-603.33 426.67-40s785.26 1158.2 866.61 1271.2c-73.84-91.332-724.12-858.25-736.61-864.49" fill="#442f38"/><path d="m3346.9 2303.7-83.54-33.66 1466.7-415.8-200-30.87 1536.4-535.53-343.11-564.47 286.67 80-1046.7-1526.7 878.13 40.578 562.61 1852.9 8.76-3.05 97.95 317.1-3163.9 819.49" fill="#766057"/><path d="m4676.7 136.67 560 426.66-135.97-367.86 717.98 1061.2-448.68-426.67 190.95 337.07-884.28-1030.4" fill="#766057"/><path d="m5067 1935.8 1620 233.34 666.67-116.67 1081 56.11 594.64-101.97 131.39-306.61-713.73 305.8-360-83.33 60 83.33-706.27-210-787.06 300-1586.7-160" fill="#00523b"/><path d="m4236.5 2599.2 1860.2 130.76 2173.3-413.93-1533.3 206.97 40-119.71-773.34 203.28-1766.9-7.37" fill="#28a266"/><path d="m0 3089.2 1595.7-233.04 347.66 53.85 1672.6-307.1-1537.5 187.1 211.53-113.33-780 113.33-26.67-60-1240 266.67-1120-200 876.67 292.52" fill="#28a266"/><path d="m4390 1329.2-31.27-17.77-1688.7 380.47-306.5-217.3-1424.9 405-915-450-240 165-1109.9-465 90 405 1694.9 645 907.6-289.8 873.8 470.2 2150-1030.8" fill="#28a266"/><path d="m1531.8 1978.9 708.15 381.06 2150-1030.8-1785 685.8 40-125-460 279.14-653.15-190.2" fill="#28ffb1"/><path d="m-436.67 1854.2 826.67 189.13-73.332-140 306.66 140 742.87-153.53-907.6 289.8-895.27-325.4" fill="#28ffb1"/><path d="m5100.7 1934.6 1552.9 161.23 787.06-300 706.27 210-856.96-478.08-500 406.85 6.67-189.77-206.67 272.1-1489.3-82.33" fill="#28a266"/><path d="m6428.5 459.48 1840 580 65.89-796.66-292.56 496.66-573.33-196.62 100 129.96-1140-213.34" fill="#28a266"/></g></g></svg>
